<svg width="72" height="72" viewBox="0 0 72 72" fill="none" xmlns="http://www.w3.org/2000/svg">
<rect width="72" height="72" rx="36" fill="#FFF4E8"/>
<path d="M24.3333 51C23.4167 51 22.6322 50.6739 21.98 50.0217C21.3278 49.3694 21.0011 48.5844 21 47.6667V24.3333C21 23.4167 21.3267 22.6322 21.98 21.98C22.6333 21.3278 23.4178 21.0011 24.3333 21H47.6667C48.5833 21 49.3683 21.3267 50.0217 21.98C50.675 22.6333 51.0011 23.4178 51 24.3333V33.75C50.4722 33.5 49.9306 33.2983 49.375 33.145C48.8194 32.9917 48.25 32.8744 47.6667 32.7933V24.3333H24.3333V39.3333H31.3333C31.5833 40.0833 32 40.7361 32.5833 41.2917C33.1667 41.8472 33.8194 42.2361 34.5417 42.4583C34.3194 43.9583 34.3611 45.4444 34.6667 46.9167C34.9722 48.3889 35.5694 49.75 36.4583 51H24.3333ZM27.6667 30.5833H44.3333V27.25H27.6667V30.5833ZM27.6667 36.4167H37.5417C38.2917 35.6111 39.1322 34.9306 40.0633 34.375C40.9944 33.8194 42.0011 33.3889 43.0833 33.0833H27.6667V36.4167ZM49.3333 52.6667C48.4167 52.6667 47.6322 52.3406 46.98 51.6883C46.3278 51.0361 46.0011 50.2372 46 49.2917L42.625 47.25C42.375 47.3889 42.1183 47.4933 41.855 47.5633C41.5917 47.6333 41.3067 47.6678 41 47.6667C40.0833 47.6667 39.2989 47.3406 38.6467 46.6883C37.9944 46.0361 37.6678 45.2511 37.6667 44.3333C37.6656 43.4156 37.9922 42.6311 38.6467 41.98C39.3011 41.3289 40.0856 41.0022 41 41C41.3056 41 41.5906 41.035 41.855 41.105C42.1194 41.175 42.3761 41.2789 42.625 41.4167L46 39.4167C46 38.4722 46.3267 37.6739 46.98 37.0217C47.6333 36.3694 48.4178 36.0428 49.3333 36.0417C50.2489 36.0406 51.0339 36.3672 51.6883 37.0217C52.3428 37.6761 52.6689 38.4606 52.6667 39.375C52.6644 40.2894 52.3383 41.0744 51.6883 41.73C51.0383 42.3856 50.2533 42.7117 49.3333 42.7083C49.0278 42.7083 48.7428 42.6739 48.4783 42.605C48.2139 42.5361 47.9572 42.4317 47.7083 42.2917L44.3333 44.2917V44.4167L47.7083 46.4167C47.9583 46.2778 48.2156 46.1739 48.48 46.105C48.7444 46.0361 49.0289 46.0011 49.3333 46C50.25 46 51.035 46.3267 51.6883 46.98C52.3417 47.6333 52.6678 48.4178 52.6667 49.3333C52.6656 50.2489 52.3394 51.0339 51.6883 51.6883C51.0372 52.3428 50.2522 52.6689 49.3333 52.6667Z" fill="#FFB45D"/>
</svg>
