<svg width="72" height="72" viewBox="0 0 72 72" fill="none" xmlns="http://www.w3.org/2000/svg">
<rect width="72" height="72" rx="36" fill="#FFF4E8"/>
<path d="M33.4589 28C32.3544 28 31.4589 27.1046 31.4589 26C31.4589 24.8954 32.3544 24 33.4589 24H41.0531C42.1577 24 43.0531 24.8954 43.0531 26C43.0531 27.1046 42.1577 28 41.0531 28H33.4589ZM27.5942 55.9999C26.5314 55.9999 25.6219 55.6086 24.8657 54.826C24.1095 54.0433 23.7308 53.1013 23.7295 52C23.7282 50.8986 24.1069 49.9573 24.8657 49.176C25.6245 48.3946 26.534 48.0026 27.5942 48C28.6544 47.9973 29.5646 48.3893 30.3246 49.176C31.0847 49.9626 31.4628 50.904 31.4589 52C31.4551 53.096 31.077 54.0379 30.3246 54.826C29.5723 55.6139 28.6622 56.0053 27.5942 55.9999ZM46.9179 55.9999C45.8551 55.9999 44.9456 55.6086 44.1894 54.826C43.4332 54.0433 43.0544 53.1013 43.0531 52C43.0519 50.8986 43.4306 49.9573 44.1894 49.176C44.9481 48.3946 45.8576 48.0026 46.9179 48C47.9781 47.9973 48.8882 48.3893 49.6483 49.176C50.4084 49.9626 50.7865 50.904 50.7826 52C50.7787 53.096 50.4006 54.0379 49.6483 54.826C48.896 55.6139 47.9858 56.0053 46.9179 55.9999ZM18 20C16.8954 20 16 19.1046 16 18C16 16.8954 16.8954 16 18 16H21.0427C21.8259 16 22.5371 16.4572 22.8622 17.1698L30.0073 32.8302C30.3325 33.5428 31.0436 34 31.8269 34H42.8729C43.6087 34 44.2851 33.5959 44.6339 32.948L51.0546 21.0204C51.3929 20.3919 52.049 20 52.7627 20C54.2282 20 55.1645 21.5625 54.4734 22.8547L47.4976 35.9C47.1433 36.5666 46.6686 37.0833 46.0734 37.45C45.4783 37.8166 44.8258 38 44.1159 38H30.9219C30.1821 38 29.5028 38.4082 29.1557 39.0615C28.4479 40.3936 29.4133 42 30.9219 42H48.7826C49.8872 42 50.7826 42.8954 50.7826 44C50.7826 45.1045 49.8872 46 48.7826 46H27.5942C26.1449 46 25.0415 45.35 24.2841 44.05C23.5266 42.75 23.5027 41.4333 24.2126 40.1L26.3565 36.0729C26.6494 35.5227 26.6691 34.8675 26.4097 34.3007L20.3991 21.1677C20.0735 20.4562 19.363 20 18.5806 20H18Z" fill="#FFB45D"/>
</svg>
