<svg width="114" height="61" viewBox="0 0 114 61" fill="none" xmlns="http://www.w3.org/2000/svg">
<path d="M63.6719 27.8535C63.1594 27.1937 62.4566 26.8631 61.5663 26.8631C60.676 26.8631 59.919 27.2024 59.3787 27.8824C58.8384 28.561 58.569 29.459 58.569 30.578C58.569 31.6969 58.8384 32.6094 59.3787 33.2692C59.919 33.929 60.6262 34.2596 61.5019 34.2596C62.3775 34.2596 63.1184 33.9391 63.6485 33.2981C64.1771 32.6556 64.4421 31.7648 64.4421 30.6256C64.4421 29.4865 64.1859 28.5148 63.6719 27.8535ZM63.6719 27.8535C63.1594 27.1937 62.4566 26.8631 61.5663 26.8631C60.676 26.8631 59.919 27.2024 59.3787 27.8824C58.8384 28.561 58.569 29.459 58.569 30.578C58.569 31.6969 58.8384 32.6094 59.3787 33.2692C59.919 33.929 60.6262 34.2596 61.5019 34.2596C62.3775 34.2596 63.1184 33.9391 63.6485 33.2981C64.1771 32.6556 64.4421 31.7648 64.4421 30.6256C64.4421 29.4865 64.1859 28.5148 63.6719 27.8535ZM63.6719 27.8535C63.1594 27.1937 62.4566 26.8631 61.5663 26.8631C60.676 26.8631 59.919 27.2024 59.3787 27.8824C58.8384 28.561 58.569 29.459 58.569 30.578C58.569 31.6969 58.8384 32.6094 59.3787 33.2692C59.919 33.929 60.6262 34.2596 61.5019 34.2596C62.3775 34.2596 63.1184 33.9391 63.6485 33.2981C64.1771 32.6556 64.4421 31.7648 64.4421 30.6256C64.4421 29.4865 64.1859 28.5148 63.6719 27.8535ZM76.2528 27.8535C75.7389 27.1937 75.0375 26.8631 74.1458 26.8631C73.254 26.8631 72.4985 27.2024 71.9596 27.8824C71.4193 28.561 71.1484 29.459 71.1484 30.578C71.1484 31.6969 71.4193 32.6094 71.9596 33.2692C72.4985 33.929 73.2072 34.2596 74.0813 34.2596C74.9555 34.2596 75.6993 33.9391 76.2279 33.2981C76.7565 32.6556 77.0216 31.7648 77.0216 30.6256C77.0216 29.4865 76.7653 28.5148 76.2528 27.8535ZM76.2528 27.8535C75.7389 27.1937 75.0375 26.8631 74.1458 26.8631C73.254 26.8631 72.4985 27.2024 71.9596 27.8824C71.4193 28.561 71.1484 29.459 71.1484 30.578C71.1484 31.6969 71.4193 32.6094 71.9596 33.2692C72.4985 33.929 73.2072 34.2596 74.0813 34.2596C74.9555 34.2596 75.6993 33.9391 76.2279 33.2981C76.7565 32.6556 77.0216 31.7648 77.0216 30.6256C77.0216 29.4865 76.7653 28.5148 76.2528 27.8535ZM63.6719 27.8535C63.1594 27.1937 62.4566 26.8631 61.5663 26.8631C60.676 26.8631 59.919 27.2024 59.3787 27.8824C58.8384 28.561 58.569 29.459 58.569 30.578C58.569 31.6969 58.8384 32.6094 59.3787 33.2692C59.919 33.929 60.6262 34.2596 61.5019 34.2596C62.3775 34.2596 63.1184 33.9391 63.6485 33.2981C64.1771 32.6556 64.4421 31.7648 64.4421 30.6256C64.4421 29.4865 64.1859 28.5148 63.6719 27.8535ZM108.71 0H5.29184C2.36917 0 0 2.3346 0 5.2164V55.7836C0 58.6639 2.36917 61 5.29184 61H108.71C111.631 61 114 58.6639 114 55.7836V5.2164C114 2.3346 111.631 0 108.71 0ZM58.9321 46.7253C58.9321 46.7253 58.9248 46.7325 58.9218 46.7354C55.8205 49.789 51.9739 51.8695 47.77 52.8152C45.3906 53.4577 42.8677 53.8027 40.254 53.8027C38.2216 53.8027 36.2434 53.5934 34.3442 53.1992C23.56 50.957 15.3484 42.713 14.3351 32.6108C14.3322 32.5791 14.3293 32.5473 14.3263 32.5155C14.2692 31.8543 14.2399 31.1858 14.2399 30.513C14.2399 29.7622 14.2751 29.0187 14.3468 28.2823C15.3967 18.3173 23.4545 10.1787 34.0602 7.85998H34.0631C36.0472 7.4254 38.1206 7.19583 40.254 7.19583C43.058 7.19583 45.7581 7.59288 48.2884 8.32776C48.2913 8.32776 48.2942 8.32776 48.2972 8.33065C51.9769 9.25179 55.3813 11.0536 58.2249 13.6308L58.6553 14.0221C58.7286 14.0885 58.8018 14.1549 58.875 14.2213C58.9599 14.2993 59.0448 14.3772 59.1283 14.4566H49.3588C48.6427 13.9426 47.8974 13.4821 47.1302 13.0735C42.5338 10.6277 36.9711 10.749 32.4275 13.2886C30.9149 14.1347 29.4975 15.1872 28.2222 16.4433C20.3547 24.2008 20.3547 36.8238 28.2222 44.5813C29.4873 45.8287 30.8798 46.8754 32.3587 47.7215C36.936 50.3405 42.6012 50.443 47.2312 47.9164C47.9897 47.502 48.7262 47.0371 49.4364 46.5188H59.1415L58.9321 46.7253ZM55.2773 38.1766H50.167C48.9297 36.4802 48.1317 34.5181 47.8359 32.4303H38.166C38.5598 36.5971 40.2789 40.6643 43.3231 43.959H34.3311C31.5167 40.0997 29.9968 35.458 29.9968 30.5693C29.9968 25.6806 31.5182 21.0316 34.3354 17.171H43.3289C40.2833 20.4657 38.5628 24.5314 38.1674 28.6982H47.8359C48.1332 26.6104 48.9312 24.6483 50.1685 22.9519H55.2802C51.3033 27.2544 51.3018 33.8741 55.2773 38.1766ZM65.6047 34.8342C64.5431 35.9373 63.1594 36.4888 61.4521 36.4888C59.7448 36.4888 58.4342 35.9546 57.3858 34.8862C56.3389 33.8193 55.8147 32.4275 55.8147 30.7137C55.8147 28.9032 56.3462 27.4392 57.4107 26.3202C58.4738 25.2027 59.8839 24.6426 61.6395 24.6426C63.2971 24.6426 64.6369 25.1782 65.6604 26.248C66.6839 27.3193 67.1964 28.7299 67.1964 30.4812C67.1964 32.2325 66.6649 33.7326 65.6047 34.8342ZM78.1842 34.8342C77.1226 35.9373 75.7389 36.4888 74.033 36.4888C72.3271 36.4888 71.0137 35.9546 69.9668 34.8862C68.9184 33.8193 68.3941 32.4275 68.3941 30.7137C68.3941 28.9032 68.9271 27.4392 69.9902 26.3202C71.0547 25.2027 72.4633 24.6426 74.219 24.6426C75.8765 24.6426 77.2178 25.1782 78.2413 26.248C79.2648 27.3193 79.7758 28.7299 79.7758 30.4812C79.7758 32.2325 79.2458 33.7326 78.1842 34.8342ZM88.7239 34.6798C88.4779 35.1129 88.1441 35.4652 87.7224 35.7337C87.3021 36.0023 86.8116 36.1957 86.2523 36.3127C85.6944 36.4296 85.1028 36.4888 84.482 36.4888C83.8611 36.4888 83.2388 36.4354 82.6634 36.3286C82.0894 36.2217 81.5901 36.0629 81.1698 35.8492V33.2937C81.6398 33.6821 82.1494 33.9737 82.7 34.1672C83.252 34.3621 83.807 34.4589 84.3692 34.4589C84.6987 34.4589 84.9857 34.43 85.2317 34.3722C85.4777 34.313 85.6827 34.2322 85.8481 34.1282C86.0121 34.0243 86.1351 33.9016 86.2157 33.7601C86.2977 33.62 86.3372 33.467 86.3372 33.3009C86.3372 33.0772 86.2728 32.8779 86.1439 32.7018C86.0136 32.5271 85.8364 32.3639 85.6124 32.2152C85.3884 32.0665 85.1219 31.9221 84.8144 31.7835C84.5069 31.6449 84.1745 31.5049 83.8187 31.3605C82.9108 30.988 82.2343 30.5318 81.7892 29.9947C81.3441 29.4561 81.1215 28.8079 81.1215 28.0456C81.1215 27.4493 81.243 26.9367 81.4846 26.5079C81.7292 26.0791 82.0586 25.7268 82.4774 25.4496C82.8962 25.1724 83.3809 24.9688 83.9314 24.8389C84.482 24.709 85.0662 24.6426 85.6812 24.6426C86.2962 24.6426 86.8219 24.6786 87.289 24.7508C87.7561 24.823 88.1866 24.9328 88.5819 25.0829V27.4709C88.3872 27.3381 88.1748 27.2197 87.9449 27.1187C87.7165 27.0176 87.4793 26.9338 87.2363 26.8674C86.9932 26.801 86.7516 26.7519 86.5114 26.7202C86.2713 26.6884 86.0429 26.6725 85.8276 26.6725C85.5304 26.6725 85.261 26.7 85.0164 26.7563C84.7748 26.8111 84.5684 26.8905 84.4014 26.9916C84.2345 27.0927 84.1042 27.2139 84.0134 27.354C83.9212 27.4955 83.8758 27.6543 83.8758 27.8304C83.8758 28.021 83.9256 28.1928 84.0295 28.3459C84.132 28.4975 84.277 28.6404 84.4659 28.7761C84.6548 28.9118 84.8846 29.0447 85.1555 29.176C85.425 29.306 85.7295 29.4403 86.0707 29.5789C86.5349 29.7709 86.9522 29.9745 87.3212 30.1896C87.6916 30.4062 88.0094 30.6502 88.2744 30.9216C88.538 31.193 88.74 31.5034 88.8806 31.8514C89.0212 32.2008 89.0915 32.6065 89.0915 33.0699C89.0915 33.7081 88.9685 34.2452 88.7239 34.6798ZM95.9779 32.2152V36.2881H93.3612V32.2629L89.6757 24.8346H92.6643L94.5356 29.1082C94.5678 29.1876 94.6571 29.4995 94.8021 30.0423H94.8358C94.9046 29.6597 94.9895 29.358 95.0862 29.14L96.9897 24.8346H99.7601L95.9779 32.2152ZM74.1458 26.8631C73.2277 26.8631 72.4985 27.2024 71.9596 27.8824C71.4193 28.561 71.1484 29.459 71.1484 30.578C71.1484 31.6969 71.4193 32.6094 71.9596 33.2692C72.4985 33.929 73.2072 34.2596 74.0813 34.2596C74.9555 34.2596 75.6993 33.9391 76.2279 33.2981C76.7565 32.6556 77.0216 31.7648 77.0216 30.6256C77.0216 29.4865 76.7653 28.5148 76.2528 27.8535C75.7389 27.1937 75.0375 26.8631 74.1458 26.8631ZM61.5663 26.8631C60.6482 26.8631 59.919 27.2024 59.3787 27.8824C58.8384 28.561 58.569 29.459 58.569 30.578C58.569 31.6969 58.8384 32.6094 59.3787 33.2692C59.919 33.929 60.6262 34.2596 61.5019 34.2596C62.3775 34.2596 63.1184 33.9391 63.6485 33.2981C64.1771 32.6556 64.4421 31.7648 64.4421 30.6256C64.4421 29.4865 64.1859 28.5148 63.6719 27.8535C63.1594 27.1937 62.4566 26.8631 61.5663 26.8631ZM63.6719 27.8535C63.1594 27.1937 62.4566 26.8631 61.5663 26.8631C60.676 26.8631 59.919 27.2024 59.3787 27.8824C58.8384 28.561 58.569 29.459 58.569 30.578C58.569 31.6969 58.8384 32.6094 59.3787 33.2692C59.919 33.929 60.6262 34.2596 61.5019 34.2596C62.3775 34.2596 63.1184 33.9391 63.6485 33.2981C64.1771 32.6556 64.4421 31.7648 64.4421 30.6256C64.4421 29.4865 64.1859 28.5148 63.6719 27.8535ZM76.2528 27.8535C75.7389 27.1937 75.0375 26.8631 74.1458 26.8631C73.254 26.8631 72.4985 27.2024 71.9596 27.8824C71.4193 28.561 71.1484 29.459 71.1484 30.578C71.1484 31.6969 71.4193 32.6094 71.9596 33.2692C72.4985 33.929 73.2072 34.2596 74.0813 34.2596C74.9555 34.2596 75.6993 33.9391 76.2279 33.2981C76.7565 32.6556 77.0216 31.7648 77.0216 30.6256C77.0216 29.4865 76.7653 28.5148 76.2528 27.8535ZM76.2528 27.8535C75.7389 27.1937 75.0375 26.8631 74.1458 26.8631C73.254 26.8631 72.4985 27.2024 71.9596 27.8824C71.4193 28.561 71.1484 29.459 71.1484 30.578C71.1484 31.6969 71.4193 32.6094 71.9596 33.2692C72.4985 33.929 73.2072 34.2596 74.0813 34.2596C74.9555 34.2596 75.6993 33.9391 76.2279 33.2981C76.7565 32.6556 77.0216 31.7648 77.0216 30.6256C77.0216 29.4865 76.7653 28.5148 76.2528 27.8535ZM63.6719 27.8535C63.1594 27.1937 62.4566 26.8631 61.5663 26.8631C60.676 26.8631 59.919 27.2024 59.3787 27.8824C58.8384 28.561 58.569 29.459 58.569 30.578C58.569 31.6969 58.8384 32.6094 59.3787 33.2692C59.919 33.929 60.6262 34.2596 61.5019 34.2596C62.3775 34.2596 63.1184 33.9391 63.6485 33.2981C64.1771 32.6556 64.4421 31.7648 64.4421 30.6256C64.4421 29.4865 64.1859 28.5148 63.6719 27.8535Z" fill="#FBFBFB"/>
</svg>
