<svg width="108" height="59" viewBox="0 0 108 59" fill="none" xmlns="http://www.w3.org/2000/svg">
<path d="M60.3207 26.9403C59.8352 26.3021 59.1694 25.9823 58.326 25.9823C57.4825 25.9823 56.7654 26.3105 56.2535 26.9682C55.7416 27.6246 55.4864 28.4932 55.4864 29.5754C55.4864 30.6577 55.7416 31.5402 56.2535 32.1784C56.7654 32.8166 57.4354 33.1364 58.2649 33.1364C59.0945 33.1364 59.7964 32.8263 60.2986 32.2063C60.7993 31.5849 61.0504 30.7233 61.0504 29.6215C61.0504 28.5197 60.8077 27.5799 60.3207 26.9403ZM60.3207 26.9403C59.8352 26.3021 59.1694 25.9823 58.326 25.9823C57.4825 25.9823 56.7654 26.3105 56.2535 26.9682C55.7416 27.6246 55.4864 28.4932 55.4864 29.5754C55.4864 30.6577 55.7416 31.5402 56.2535 32.1784C56.7654 32.8166 57.4354 33.1364 58.2649 33.1364C59.0945 33.1364 59.7964 32.8263 60.2986 32.2063C60.7993 31.5849 61.0504 30.7233 61.0504 29.6215C61.0504 28.5197 60.8077 27.5799 60.3207 26.9403ZM60.3207 26.9403C59.8352 26.3021 59.1694 25.9823 58.326 25.9823C57.4825 25.9823 56.7654 26.3105 56.2535 26.9682C55.7416 27.6246 55.4864 28.4932 55.4864 29.5754C55.4864 30.6577 55.7416 31.5402 56.2535 32.1784C56.7654 32.8166 57.4354 33.1364 58.2649 33.1364C59.0945 33.1364 59.7964 32.8263 60.2986 32.2063C60.7993 31.5849 61.0504 30.7233 61.0504 29.6215C61.0504 28.5197 60.8077 27.5799 60.3207 26.9403ZM72.2395 26.9403C71.7526 26.3021 71.0882 25.9823 70.2433 25.9823C69.3985 25.9823 68.6828 26.3105 68.1723 26.9682C67.6604 27.6246 67.4038 28.4932 67.4038 29.5754C67.4038 30.6577 67.6604 31.5402 68.1723 32.1784C68.6828 32.8166 69.3542 33.1364 70.1823 33.1364C71.0105 33.1364 71.7152 32.8263 72.2159 32.2063C72.7167 31.5849 72.9678 30.7233 72.9678 29.6215C72.9678 28.5197 72.725 27.5799 72.2395 26.9403ZM72.2395 26.9403C71.7526 26.3021 71.0882 25.9823 70.2433 25.9823C69.3985 25.9823 68.6828 26.3105 68.1723 26.9682C67.6604 27.6246 67.4038 28.4932 67.4038 29.5754C67.4038 30.6577 67.6604 31.5402 68.1723 32.1784C68.6828 32.8166 69.3542 33.1364 70.1823 33.1364C71.0105 33.1364 71.7152 32.8263 72.2159 32.2063C72.7167 31.5849 72.9678 30.7233 72.9678 29.6215C72.9678 28.5197 72.725 27.5799 72.2395 26.9403ZM60.3207 26.9403C59.8352 26.3021 59.1694 25.9823 58.326 25.9823C57.4825 25.9823 56.7654 26.3105 56.2535 26.9682C55.7416 27.6246 55.4864 28.4932 55.4864 29.5754C55.4864 30.6577 55.7416 31.5402 56.2535 32.1784C56.7654 32.8166 57.4354 33.1364 58.2649 33.1364C59.0945 33.1364 59.7964 32.8263 60.2986 32.2063C60.7993 31.5849 61.0504 30.7233 61.0504 29.6215C61.0504 28.5197 60.8077 27.5799 60.3207 26.9403ZM102.988 0H5.01332C2.24448 0 0 2.25806 0 5.04537V53.9546C0 56.7405 2.24448 59 5.01332 59H102.988C105.756 59 108 56.7405 108 53.9546V5.04537C108 2.25806 105.756 0 102.988 0ZM55.8304 45.1933C55.8304 45.1933 55.8235 45.2003 55.8207 45.2031C52.8826 48.1566 49.2385 50.1688 45.2558 51.0835C43.0016 51.7049 40.6115 52.0387 38.1354 52.0387C36.2099 52.0387 34.3358 51.8362 32.5366 51.455C22.32 49.2863 14.5406 41.3126 13.5806 31.5416C13.5779 31.5109 13.5751 31.4802 13.5723 31.4494C13.5182 30.8099 13.4905 30.1633 13.4905 29.5126C13.4905 28.7864 13.5238 28.0672 13.5917 27.3551C14.5863 17.7168 22.2201 9.84497 32.2675 7.60227H32.2703C34.1499 7.18194 36.1142 6.95991 38.1354 6.95991C40.7918 6.95991 43.3498 7.34393 45.7469 8.05472C45.7497 8.05472 45.7524 8.05472 45.7552 8.05751C49.2412 8.94845 52.4665 10.6912 55.1604 13.1839L55.5682 13.5623C55.6376 13.6266 55.7069 13.6908 55.7763 13.755C55.8568 13.8304 55.9372 13.9058 56.0163 13.9826H46.7609C46.0826 13.4855 45.3765 13.04 44.6496 12.6449C40.2952 10.2793 35.0253 10.3966 30.7208 12.8529C29.2878 13.6712 27.945 14.6893 26.7368 15.9042C19.2834 23.4073 19.2834 35.6164 26.7368 43.1196C27.9353 44.3261 29.2545 45.3385 30.6556 46.1568C34.992 48.69 40.359 48.7892 44.7453 46.3454C45.4639 45.9446 46.1617 45.4949 46.8344 44.9936H56.0288L55.8304 45.1933ZM52.368 36.9249H47.5267C46.3545 35.2841 45.5985 33.3863 45.3182 31.3671H36.1572C36.5304 35.3972 38.1589 39.331 41.0429 42.5177H32.5242C29.858 38.785 28.4181 34.2954 28.4181 29.567C28.4181 24.8386 29.8594 20.3421 32.5283 16.608H41.0485C38.1631 19.7947 36.5331 23.7271 36.1586 27.7572H45.3182C45.5998 25.738 46.3559 23.8402 47.528 22.1994H52.3707C48.6031 26.3608 48.6017 32.7635 52.368 36.9249ZM62.1518 33.6921C61.1461 34.759 59.8352 35.2925 58.2178 35.2925C56.6003 35.2925 55.3588 34.7758 54.3655 33.7424C53.3737 32.7104 52.8771 31.3643 52.8771 29.7067C52.8771 27.9555 53.3806 26.5395 54.3891 25.4573C55.3962 24.3764 56.7321 23.8346 58.3953 23.8346C59.9656 23.8346 61.2349 24.3527 62.2046 25.3875C63.1742 26.4236 63.6597 27.788 63.6597 29.4818C63.6597 31.1757 63.1562 32.6267 62.1518 33.6921ZM74.0692 33.6921C73.0635 34.759 71.7526 35.2925 70.1365 35.2925C68.5205 35.2925 67.2761 34.7758 66.2843 33.7424C65.2911 32.7104 64.7944 31.3643 64.7944 29.7067C64.7944 27.9555 65.2994 26.5395 66.3065 25.4573C67.315 24.3764 68.6495 23.8346 70.3127 23.8346C71.883 23.8346 73.1537 24.3527 74.1233 25.3875C75.093 26.4236 75.5771 27.788 75.5771 29.4818C75.5771 31.1757 75.0749 32.6267 74.0692 33.6921ZM84.0543 33.5427C83.8212 33.9617 83.5049 34.3024 83.1054 34.5621C82.7073 34.8219 82.2426 35.009 81.7127 35.1221C81.1841 35.2352 80.6237 35.2925 80.0356 35.2925C79.4474 35.2925 78.8578 35.2408 78.3127 35.1375C77.7689 35.0341 77.2958 34.8805 76.8977 34.6738V32.2021C77.343 32.5778 77.8257 32.8599 78.3473 33.047C78.8703 33.2355 79.3961 33.3291 79.9287 33.3291C80.2409 33.3291 80.5127 33.3011 80.7458 33.2453C80.9788 33.188 81.173 33.1098 81.3298 33.0093C81.4852 32.9087 81.6017 32.79 81.678 32.6532C81.7557 32.5177 81.7931 32.3697 81.7931 32.2091C81.7931 31.9927 81.7321 31.8 81.61 31.6296C81.4866 31.4606 81.3187 31.3028 81.1065 31.159C80.8942 31.0151 80.6418 30.8755 80.3504 30.7414C80.0591 30.6074 79.7442 30.4719 79.4072 30.3323C78.5471 29.972 77.9062 29.5307 77.4845 29.0112C77.0628 28.4904 76.8519 27.8634 76.8519 27.126C76.8519 26.5493 76.9671 26.0536 77.196 25.6388C77.4276 25.2241 77.7397 24.8833 78.1365 24.6152C78.5332 24.3471 78.9924 24.1502 79.514 24.0245C80.0356 23.8988 80.589 23.8346 81.1717 23.8346C81.7543 23.8346 82.2523 23.8695 82.6948 23.9393C83.1373 24.0092 83.5452 24.1153 83.9197 24.2605V26.5702C83.7352 26.4418 83.534 26.3273 83.3163 26.2295C83.0999 26.1318 82.8751 26.0508 82.6449 25.9865C82.4146 25.9223 82.1857 25.8748 81.9582 25.8441C81.7307 25.8134 81.5143 25.798 81.3104 25.798C81.0288 25.798 80.7735 25.8245 80.5419 25.879C80.313 25.9321 80.1174 26.0089 79.9593 26.1066C79.8011 26.2044 79.6777 26.3217 79.5917 26.4571C79.5043 26.594 79.4613 26.7476 79.4613 26.918C79.4613 27.1023 79.5084 27.2685 79.6069 27.4165C79.704 27.5631 79.8413 27.7014 80.0203 27.8326C80.1992 27.9639 80.417 28.0924 80.6737 28.2195C80.9289 28.3451 81.2174 28.475 81.5407 28.6091C81.9804 28.7948 82.3757 28.9917 82.7253 29.1998C83.0763 29.4092 83.3773 29.6452 83.6284 29.9078C83.8781 30.1703 84.0695 30.4705 84.2027 30.8071C84.3359 31.145 84.4024 31.5374 84.4024 31.9857C84.4024 32.6029 84.2859 33.1224 84.0543 33.5427ZM90.9264 31.159V35.0984H88.4475V31.2051L84.9559 24.0203H87.7872L89.56 28.1538C89.5905 28.2306 89.6752 28.5323 89.8125 29.0573H89.8444C89.9096 28.6873 89.9901 28.3954 90.0816 28.1845L91.885 24.0203H94.5095L90.9264 31.159ZM70.2433 25.9823C69.3736 25.9823 68.6828 26.3105 68.1723 26.9682C67.6604 27.6246 67.4038 28.4932 67.4038 29.5754C67.4038 30.6577 67.6604 31.5402 68.1723 32.1784C68.6828 32.8166 69.3542 33.1364 70.1823 33.1364C71.0105 33.1364 71.7152 32.8263 72.2159 32.2063C72.7167 31.5849 72.9678 30.7233 72.9678 29.6215C72.9678 28.5197 72.725 27.5799 72.2395 26.9403C71.7526 26.3021 71.0882 25.9823 70.2433 25.9823ZM58.326 25.9823C57.4562 25.9823 56.7654 26.3105 56.2535 26.9682C55.7416 27.6246 55.4864 28.4932 55.4864 29.5754C55.4864 30.6577 55.7416 31.5402 56.2535 32.1784C56.7654 32.8166 57.4354 33.1364 58.2649 33.1364C59.0945 33.1364 59.7964 32.8263 60.2986 32.2063C60.7993 31.5849 61.0504 30.7233 61.0504 29.6215C61.0504 28.5197 60.8077 27.5799 60.3207 26.9403C59.8352 26.3021 59.1694 25.9823 58.326 25.9823ZM60.3207 26.9403C59.8352 26.3021 59.1694 25.9823 58.326 25.9823C57.4825 25.9823 56.7654 26.3105 56.2535 26.9682C55.7416 27.6246 55.4864 28.4932 55.4864 29.5754C55.4864 30.6577 55.7416 31.5402 56.2535 32.1784C56.7654 32.8166 57.4354 33.1364 58.2649 33.1364C59.0945 33.1364 59.7964 32.8263 60.2986 32.2063C60.7993 31.5849 61.0504 30.7233 61.0504 29.6215C61.0504 28.5197 60.8077 27.5799 60.3207 26.9403ZM72.2395 26.9403C71.7526 26.3021 71.0882 25.9823 70.2433 25.9823C69.3985 25.9823 68.6828 26.3105 68.1723 26.9682C67.6604 27.6246 67.4038 28.4932 67.4038 29.5754C67.4038 30.6577 67.6604 31.5402 68.1723 32.1784C68.6828 32.8166 69.3542 33.1364 70.1823 33.1364C71.0105 33.1364 71.7152 32.8263 72.2159 32.2063C72.7167 31.5849 72.9678 30.7233 72.9678 29.6215C72.9678 28.5197 72.725 27.5799 72.2395 26.9403ZM72.2395 26.9403C71.7526 26.3021 71.0882 25.9823 70.2433 25.9823C69.3985 25.9823 68.6828 26.3105 68.1723 26.9682C67.6604 27.6246 67.4038 28.4932 67.4038 29.5754C67.4038 30.6577 67.6604 31.5402 68.1723 32.1784C68.6828 32.8166 69.3542 33.1364 70.1823 33.1364C71.0105 33.1364 71.7152 32.8263 72.2159 32.2063C72.7167 31.5849 72.9678 30.7233 72.9678 29.6215C72.9678 28.5197 72.725 27.5799 72.2395 26.9403ZM60.3207 26.9403C59.8352 26.3021 59.1694 25.9823 58.326 25.9823C57.4825 25.9823 56.7654 26.3105 56.2535 26.9682C55.7416 27.6246 55.4864 28.4932 55.4864 29.5754C55.4864 30.6577 55.7416 31.5402 56.2535 32.1784C56.7654 32.8166 57.4354 33.1364 58.2649 33.1364C59.0945 33.1364 59.7964 32.8263 60.2986 32.2063C60.7993 31.5849 61.0504 30.7233 61.0504 29.6215C61.0504 28.5197 60.8077 27.5799 60.3207 26.9403Z" fill="#152147"/>
</svg>
