<svg width="72" height="72" viewBox="0 0 72 72" fill="none" xmlns="http://www.w3.org/2000/svg">
<rect width="72" height="72" rx="36" fill="#FFF4E8"/>
<path fill-rule="evenodd" clip-rule="evenodd" d="M32.68 19.608C32.7706 19.1548 33.0154 18.7469 33.3727 18.4538C33.73 18.1606 34.1778 18.0003 34.64 18H37.36C37.8222 18.0003 38.27 18.1606 38.6273 18.4538C38.9846 18.7469 39.2294 19.1548 39.32 19.608L39.91 22.554C40.906 22.8447 41.85 23.236 42.742 23.728L45.242 22.06C45.6267 21.8034 46.0885 21.6881 46.5487 21.7337C47.0089 21.7793 47.4391 21.983 47.766 22.31L49.69 24.234C50.017 24.5609 50.2207 24.9911 50.2663 25.4513C50.3119 25.9115 50.1966 26.3733 49.94 26.758L48.272 29.258C48.7653 30.15 49.1567 31.094 49.446 32.09L52.392 32.678C52.8452 32.7686 53.2531 33.0134 53.5462 33.3707C53.8394 33.728 53.9997 34.1758 54 34.638V37.36C53.9997 37.8222 53.8394 38.27 53.5462 38.6273C53.2531 38.9846 52.8452 39.2294 52.392 39.32L49.446 39.91C49.1595 40.8941 48.7658 41.8438 48.272 42.742L49.94 45.242C50.1966 45.6267 50.3119 46.0885 50.2663 46.5487C50.2207 47.0089 50.017 47.4391 49.69 47.766L47.766 49.69C47.4391 50.017 47.0089 50.2207 46.5487 50.2663C46.0885 50.3119 45.6267 50.1966 45.242 49.94L42.742 48.272C41.8438 48.7658 40.8941 49.1595 39.91 49.446L39.322 52.392C39.2314 52.8452 38.9866 53.2531 38.6293 53.5462C38.272 53.8394 37.8242 53.9997 37.362 54H34.64C34.1778 53.9997 33.73 53.8394 33.3727 53.5462C33.0154 53.2531 32.7706 52.8452 32.68 52.392L32.09 49.446C31.1059 49.1595 30.1562 48.7658 29.258 48.272L26.758 49.94C26.3733 50.1966 25.9115 50.3119 25.4513 50.2663C24.9911 50.2207 24.5609 50.017 24.234 49.69L22.31 47.766C21.983 47.4391 21.7793 47.0089 21.7337 46.5487C21.6881 46.0885 21.8034 45.6267 22.06 45.242L23.728 42.742C23.2342 41.8438 22.8405 40.8941 22.554 39.91L19.608 39.322C19.1544 39.2313 18.7463 38.9863 18.4531 38.6286C18.16 38.2708 17.9998 37.8225 18 37.36V34.64C18.0003 34.1778 18.1606 33.73 18.4538 33.3727C18.7469 33.0154 19.1548 32.7706 19.608 32.68L22.554 32.09C22.8447 31.094 23.236 30.15 23.728 29.258L22.06 26.758C21.8034 26.3733 21.6881 25.9115 21.7337 25.4513C21.7793 24.9911 21.983 24.5609 22.31 24.234L24.234 22.31C24.5611 21.9825 24.9916 21.7785 25.4523 21.7329C25.9129 21.6873 26.3751 21.8029 26.76 22.06L29.26 23.728C30.1582 23.2342 31.1079 22.8405 32.092 22.554L32.68 19.608ZM42 36C42 37.5913 41.3679 39.1174 40.2426 40.2426C39.1174 41.3679 37.5913 42 36 42C34.4087 42 32.8826 41.3679 31.7574 40.2426C30.6321 39.1174 30 37.5913 30 36C30 34.4087 30.6321 32.8826 31.7574 31.7574C32.8826 30.6321 34.4087 30 36 30C37.5913 30 39.1174 30.6321 40.2426 31.7574C41.3679 32.8826 42 34.4087 42 36Z" fill="#FFB45D"/>
</svg>
